<mxfile host="app.diagrams.net" agent="Mozilla/5.0 (Windows NT 10.0; Win64; x64) AppleWebKit/537.36 (KHTML, like Gecko) Chrome/129.0.0.0 Safari/537.36 Edg/129.0.0.0" version="24.7.16">
  <diagram name="Сторінка-1" id="YVrM4S3ueRkJX6iu7bd3">
    <mxGraphModel grid="1" page="1" gridSize="10" guides="1" tooltips="1" connect="1" arrows="1" fold="1" pageScale="1" pageWidth="827" pageHeight="1169" math="0" shadow="0">
      <root>
        <mxCell id="0" />
        <mxCell id="1" parent="0" />
        <mxCell id="2SN2RuZRrwh5YiBzCBIZ-8" value="" style="edgeStyle=orthogonalEdgeStyle;rounded=0;orthogonalLoop=1;jettySize=auto;html=1;" edge="1" parent="1" source="2SN2RuZRrwh5YiBzCBIZ-2" target="2SN2RuZRrwh5YiBzCBIZ-7">
          <mxGeometry relative="1" as="geometry" />
        </mxCell>
        <mxCell id="2SN2RuZRrwh5YiBzCBIZ-2" value="&lt;font style=&quot;font-size: 16px;&quot;&gt;start&lt;/font&gt;" style="strokeWidth=2;html=1;shape=mxgraph.flowchart.start_1;whiteSpace=wrap;" vertex="1" parent="1">
          <mxGeometry x="290" y="40" width="200" height="60" as="geometry" />
        </mxCell>
        <mxCell id="2SN2RuZRrwh5YiBzCBIZ-10" value="" style="edgeStyle=orthogonalEdgeStyle;rounded=0;orthogonalLoop=1;jettySize=auto;html=1;" edge="1" parent="1" source="2SN2RuZRrwh5YiBzCBIZ-7" target="2SN2RuZRrwh5YiBzCBIZ-9">
          <mxGeometry relative="1" as="geometry" />
        </mxCell>
        <mxCell id="2SN2RuZRrwh5YiBzCBIZ-7" value="&lt;font style=&quot;font-size: 16px;&quot;&gt;n, m, k&lt;/font&gt;" style="shape=parallelogram;perimeter=parallelogramPerimeter;whiteSpace=wrap;html=1;fixedSize=1;strokeWidth=2;" vertex="1" parent="1">
          <mxGeometry x="255" y="180" width="270" height="60" as="geometry" />
        </mxCell>
        <mxCell id="2SN2RuZRrwh5YiBzCBIZ-12" value="" style="edgeStyle=orthogonalEdgeStyle;rounded=0;orthogonalLoop=1;jettySize=auto;html=1;" edge="1" parent="1" source="2SN2RuZRrwh5YiBzCBIZ-9" target="2SN2RuZRrwh5YiBzCBIZ-11">
          <mxGeometry relative="1" as="geometry" />
        </mxCell>
        <mxCell id="2SN2RuZRrwh5YiBzCBIZ-18" value="" style="edgeStyle=orthogonalEdgeStyle;rounded=0;orthogonalLoop=1;jettySize=auto;html=1;" edge="1" parent="1" source="2SN2RuZRrwh5YiBzCBIZ-9" target="2SN2RuZRrwh5YiBzCBIZ-17">
          <mxGeometry relative="1" as="geometry" />
        </mxCell>
        <mxCell id="2SN2RuZRrwh5YiBzCBIZ-9" value="&lt;font style=&quot;font-size: 16px;&quot;&gt;k==1&lt;/font&gt;" style="rhombus;whiteSpace=wrap;html=1;strokeWidth=2;" vertex="1" parent="1">
          <mxGeometry x="295" y="310" width="190" height="110" as="geometry" />
        </mxCell>
        <mxCell id="2SN2RuZRrwh5YiBzCBIZ-14" value="" style="edgeStyle=orthogonalEdgeStyle;rounded=0;orthogonalLoop=1;jettySize=auto;html=1;" edge="1" parent="1" source="2SN2RuZRrwh5YiBzCBIZ-11" target="2SN2RuZRrwh5YiBzCBIZ-13">
          <mxGeometry relative="1" as="geometry" />
        </mxCell>
        <mxCell id="2SN2RuZRrwh5YiBzCBIZ-16" value="" style="edgeStyle=orthogonalEdgeStyle;rounded=0;orthogonalLoop=1;jettySize=auto;html=1;" edge="1" parent="1" source="2SN2RuZRrwh5YiBzCBIZ-11" target="2SN2RuZRrwh5YiBzCBIZ-15">
          <mxGeometry relative="1" as="geometry" />
        </mxCell>
        <mxCell id="2SN2RuZRrwh5YiBzCBIZ-11" value="&lt;font style=&quot;font-size: 16px;&quot;&gt;n&amp;gt;=m&lt;/font&gt;" style="rhombus;whiteSpace=wrap;html=1;strokeWidth=2;" vertex="1" parent="1">
          <mxGeometry x="100" y="430" width="185" height="90" as="geometry" />
        </mxCell>
        <mxCell id="2SN2RuZRrwh5YiBzCBIZ-41" style="edgeStyle=elbowEdgeStyle;rounded=0;orthogonalLoop=1;jettySize=auto;html=1;elbow=vertical;entryX=0.5;entryY=0;entryDx=0;entryDy=0;entryPerimeter=0;" edge="1" parent="1" source="2SN2RuZRrwh5YiBzCBIZ-13" target="2SN2RuZRrwh5YiBzCBIZ-37">
          <mxGeometry relative="1" as="geometry">
            <mxPoint x="10" y="800" as="targetPoint" />
            <Array as="points">
              <mxPoint x="220" y="750" />
            </Array>
          </mxGeometry>
        </mxCell>
        <mxCell id="2SN2RuZRrwh5YiBzCBIZ-13" value="&lt;font style=&quot;font-size: 16px;&quot;&gt;0&lt;/font&gt;" style="shape=parallelogram;perimeter=parallelogramPerimeter;whiteSpace=wrap;html=1;fixedSize=1;strokeWidth=2;" vertex="1" parent="1">
          <mxGeometry x="-70" y="540" width="160" height="60" as="geometry" />
        </mxCell>
        <mxCell id="2SN2RuZRrwh5YiBzCBIZ-40" style="edgeStyle=orthogonalEdgeStyle;rounded=0;orthogonalLoop=1;jettySize=auto;html=1;" edge="1" parent="1" source="2SN2RuZRrwh5YiBzCBIZ-15" target="2SN2RuZRrwh5YiBzCBIZ-37">
          <mxGeometry relative="1" as="geometry" />
        </mxCell>
        <mxCell id="2SN2RuZRrwh5YiBzCBIZ-15" value="&lt;font style=&quot;font-size: 16px;&quot;&gt;-1&lt;/font&gt;" style="shape=parallelogram;perimeter=parallelogramPerimeter;whiteSpace=wrap;html=1;fixedSize=1;strokeWidth=2;" vertex="1" parent="1">
          <mxGeometry x="108.75" y="585" width="167.5" height="60" as="geometry" />
        </mxCell>
        <mxCell id="2SN2RuZRrwh5YiBzCBIZ-23" value="" style="edgeStyle=orthogonalEdgeStyle;rounded=0;orthogonalLoop=1;jettySize=auto;html=1;" edge="1" parent="1" source="2SN2RuZRrwh5YiBzCBIZ-17" target="2SN2RuZRrwh5YiBzCBIZ-22">
          <mxGeometry relative="1" as="geometry" />
        </mxCell>
        <mxCell id="2SN2RuZRrwh5YiBzCBIZ-34" value="" style="edgeStyle=orthogonalEdgeStyle;rounded=0;orthogonalLoop=1;jettySize=auto;html=1;" edge="1" parent="1" source="2SN2RuZRrwh5YiBzCBIZ-17" target="2SN2RuZRrwh5YiBzCBIZ-33">
          <mxGeometry relative="1" as="geometry" />
        </mxCell>
        <mxCell id="2SN2RuZRrwh5YiBzCBIZ-17" value="&lt;font style=&quot;font-size: 16px;&quot;&gt;n&amp;lt;m&lt;/font&gt;" style="rhombus;whiteSpace=wrap;html=1;strokeWidth=2;" vertex="1" parent="1">
          <mxGeometry x="510" y="430" width="180" height="80" as="geometry" />
        </mxCell>
        <mxCell id="2SN2RuZRrwh5YiBzCBIZ-25" value="" style="edgeStyle=orthogonalEdgeStyle;rounded=0;orthogonalLoop=1;jettySize=auto;html=1;" edge="1" parent="1" source="2SN2RuZRrwh5YiBzCBIZ-22" target="2SN2RuZRrwh5YiBzCBIZ-24">
          <mxGeometry relative="1" as="geometry" />
        </mxCell>
        <mxCell id="2SN2RuZRrwh5YiBzCBIZ-22" value="&lt;font style=&quot;font-size: 16px;&quot;&gt;n*=k&lt;/font&gt;" style="whiteSpace=wrap;html=1;strokeWidth=2;" vertex="1" parent="1">
          <mxGeometry x="500" y="585" width="200" height="60" as="geometry" />
        </mxCell>
        <mxCell id="2SN2RuZRrwh5YiBzCBIZ-32" style="edgeStyle=elbowEdgeStyle;rounded=0;orthogonalLoop=1;jettySize=auto;html=1;" edge="1" parent="1">
          <mxGeometry relative="1" as="geometry">
            <mxPoint x="600" y="360" as="targetPoint" />
            <mxPoint x="700" y="710" as="sourcePoint" />
            <Array as="points">
              <mxPoint x="760" y="500" />
            </Array>
          </mxGeometry>
        </mxCell>
        <mxCell id="2SN2RuZRrwh5YiBzCBIZ-24" value="&lt;font style=&quot;font-size: 16px;&quot;&gt;i++&lt;/font&gt;" style="whiteSpace=wrap;html=1;strokeWidth=2;" vertex="1" parent="1">
          <mxGeometry x="500" y="690" width="200" height="60" as="geometry" />
        </mxCell>
        <mxCell id="2SN2RuZRrwh5YiBzCBIZ-39" value="" style="edgeStyle=orthogonalEdgeStyle;rounded=0;orthogonalLoop=1;jettySize=auto;html=1;" edge="1" parent="1" source="2SN2RuZRrwh5YiBzCBIZ-33" target="2SN2RuZRrwh5YiBzCBIZ-37">
          <mxGeometry relative="1" as="geometry" />
        </mxCell>
        <mxCell id="2SN2RuZRrwh5YiBzCBIZ-33" value="&lt;font style=&quot;font-size: 16px;&quot;&gt;i&lt;/font&gt;" style="shape=parallelogram;perimeter=parallelogramPerimeter;whiteSpace=wrap;html=1;fixedSize=1;strokeWidth=2;" vertex="1" parent="1">
          <mxGeometry x="340" y="550" width="120" height="60" as="geometry" />
        </mxCell>
        <mxCell id="2SN2RuZRrwh5YiBzCBIZ-37" value="&lt;font style=&quot;font-size: 16px;&quot;&gt;Finish&lt;/font&gt;" style="strokeWidth=2;html=1;shape=mxgraph.flowchart.start_1;whiteSpace=wrap;" vertex="1" parent="1">
          <mxGeometry x="270" y="860" width="260" height="70" as="geometry" />
        </mxCell>
        <mxCell id="2SN2RuZRrwh5YiBzCBIZ-42" value="&lt;font style=&quot;font-size: 16px;&quot;&gt;True&lt;/font&gt;" style="text;html=1;align=center;verticalAlign=middle;resizable=0;points=[];autosize=1;strokeColor=none;fillColor=none;" vertex="1" parent="1">
          <mxGeometry x="215" y="328" width="60" height="30" as="geometry" />
        </mxCell>
        <mxCell id="2SN2RuZRrwh5YiBzCBIZ-43" value="&lt;font style=&quot;font-size: 16px;&quot;&gt;True&lt;/font&gt;&lt;div&gt;&lt;font style=&quot;font-size: 16px;&quot;&gt;&lt;br&gt;&lt;/font&gt;&lt;/div&gt;" style="text;html=1;align=center;verticalAlign=middle;resizable=0;points=[];autosize=1;strokeColor=none;fillColor=none;" vertex="1" parent="1">
          <mxGeometry x="30" y="438" width="60" height="50" as="geometry" />
        </mxCell>
        <mxCell id="2SN2RuZRrwh5YiBzCBIZ-45" value="&lt;font style=&quot;font-size: 16px;&quot;&gt;True&lt;/font&gt;" style="text;html=1;align=center;verticalAlign=middle;resizable=0;points=[];autosize=1;strokeColor=none;fillColor=none;rotation=0;" vertex="1" parent="1">
          <mxGeometry x="600" y="528" width="60" height="30" as="geometry" />
        </mxCell>
      </root>
    </mxGraphModel>
  </diagram>
</mxfile>
